<?xml version="1.0" encoding="utf-8"?>
<!-- Generator: Adobe Illustrator 25.0.0, SVG Export Plug-In . SVG Version: 6.00 Build 0)  -->
<svg version="1.1" id="Layer_1" xmlns="http://www.w3.org/2000/svg" xmlns:xlink="http://www.w3.org/1999/xlink" x="0px" y="0px"
	 viewBox="0 0 199 54" style="enable-background:new 0 0 199 54;" xml:space="preserve">
<style type="text/css">
	.st0{fill:#158CFF;}
</style>
<g>
	<path class="st0" d="M0,11.5c0-1,0.5-1.5,1.5-1.5h6c1.1,0,1.6,0.5,1.6,1.5v34.2c0,1-0.5,1.5-1.6,1.5h-6c-1,0-1.5-0.5-1.5-1.5V11.5z
		"/>
	<path class="st0" d="M66.7,47.8c-3.5,0-6.6-0.5-9.3-1.5c-0.9-0.4-1.2-0.9-0.9-1.7l0.9-3.1c0.2-0.9,0.8-1.2,1.8-0.9
		c2.1,0.7,4.1,1,6.1,1c3.3,0,5-0.8,5-2.4c0-0.8-0.4-1.4-1.1-1.8c-0.8-0.5-2-1-3.8-1.5c-2.9-1-4.8-1.9-5.9-2.6
		c-1.9-1.4-2.9-3.6-2.9-6.4c0-2.7,1-4.8,2.9-6.2c2-1.4,4.7-2.1,8.3-2.1c3.6,0,6.5,0.5,8.7,1.4c0.9,0.4,1.2,0.9,0.9,1.8l-0.9,3
		c-0.3,0.9-0.9,1.2-1.8,0.9c-1.9-0.6-3.8-0.9-5.6-0.9c-2.7,0-4.1,0.8-4.1,2.3c0,0.8,0.4,1.4,1.1,1.8c0.8,0.5,2,1,3.9,1.7
		c1.4,0.5,2.6,1,3.4,1.4c0.8,0.4,1.7,0.9,2.6,1.6c0.9,0.7,1.6,1.5,2,2.5c0.4,1,0.6,2.1,0.6,3.5C78.7,45.1,74.7,47.8,66.7,47.8z"/>
	<path class="st0" d="M97.1,45.8c0,1-0.5,1.5-1.4,1.5h-5.8c-0.9,0-1.4-0.5-1.4-1.5V20.6c0-0.9,0.5-1.4,1.4-1.4h5.8
		c0.9,0,1.4,0.5,1.4,1.4V45.8z"/>
	<path class="st0" d="M134.2,42.1c0,3.8-1.2,6.7-3.6,8.7c-2.4,2-5.9,3-10.4,3c-4.4,0-7.7-0.5-9.9-1.6c-0.8-0.4-1.1-1-0.9-1.8
		l0.9-3.3c0.3-0.9,0.9-1.2,1.8-0.9c2.4,0.8,4.8,1.3,7.3,1.3c4.5,0,6.8-1.9,6.8-5.6v-1.8c-0.7,1.2-1.7,2.1-3.1,2.8
		c-1.4,0.7-2.9,1-4.6,1c-3.4,0-6.1-1-8.1-3c-2-2-3-5.1-3-9.4s1-7.4,2.9-9.5c2-2.1,4.6-3.1,7.9-3.1c1.7,0,3.3,0.4,4.7,1.1
		c1.4,0.7,2.5,1.6,3.2,2.8l0.3-2.1c0.1-0.8,0.6-1.2,1.5-1.2h4.9c1,0,1.5,0.5,1.5,1.4V42.1z M120.8,24.7c-3.3,0-5,2.2-5,6.5
		c0,4.4,1.7,6.6,5,6.6c3.3,0,5-2.3,5-6.8C125.8,26.8,124.1,24.7,120.8,24.7z"/>
	<path class="st0" d="M171.8,45.8c0,1-0.5,1.5-1.5,1.5h-5.7c-0.9,0-1.4-0.5-1.4-1.5V30.7c0-1.7-0.3-2.9-1-3.7
		c-0.7-0.8-1.7-1.2-3.2-1.2c-1.7,0-3,0.5-3.8,1.5c-0.8,1-1.3,2.4-1.3,4.1v14.5c0,0.9-0.5,1.4-1.5,1.4h-5.7c-0.9,0-1.4-0.5-1.4-1.5
		V11.4c0-0.9,0.5-1.4,1.4-1.4h5.7c1,0,1.5,0.5,1.5,1.4v11.1c1.7-2.6,4.5-4,8.4-4c6.3,0,9.4,3.5,9.4,10.6V45.8z"/>
	<path class="st0" d="M192.3,26.3v11.6c0,1.3,0.2,2.1,0.7,2.6c0.4,0.5,1.3,0.7,2.5,0.7c0.3,0,0.6,0,1.1-0.1c0.4-0.1,0.8-0.1,1-0.1
		c0.8,0,1.2,0.4,1.2,1.3l0.2,3.5c0,0.5-0.1,0.8-0.3,1c-0.2,0.2-0.5,0.4-1,0.5c-1.3,0.4-2.9,0.5-4.7,0.5c-3.2,0-5.5-0.7-7-2
		c-1.4-1.4-2.2-3.6-2.2-6.9V26.3h-2.4c-1,0-1.5-0.5-1.5-1.4v-3.4c0-1,0.5-1.5,1.5-1.5h2.5v-6.4c0-0.8,0.5-1.3,1.5-1.3h5.3
		c1,0,1.5,0.4,1.5,1.3V20h5.2c0.9,0,1.4,0.5,1.4,1.5v3.4c0,0.9-0.5,1.4-1.4,1.4H192.3z"/>
	<path class="st0" d="M98.1,12.7c1.7-1.8,2.4-4.4,1.7-7c-1.1-3.9-5.2-6.2-9.1-5.1c-3.9,1.1-6.2,5.2-5.1,9.1c1.1,3.8,4.9,6.1,8.7,5.2
		c1.5,0.7,3.4,1.6,4.1,1.9c1.2,0.5,0.8-0.5,0.8-0.5L98.1,12.7z"/>
	<path class="st0" d="M37.7,18.6c-3.9,0-6.8,1.4-8.6,4.2l-0.4-2.4c-0.1-0.8-0.6-1.2-1.5-1.2h-5.1c-0.9,0-1.4,0.5-1.4,1.4v25.2
		c0,1,0.5,1.5,1.4,1.5h5.7h12.1h5.7c0.9,0,1.4-0.5,1.4-1.5V29.1C47,22.1,43.9,18.6,37.7,18.6z M41.3,40c-1.1,3.8-4.9,6.1-8.7,5.2
		c-1.5,0.7-3.4,1.6-4.1,1.9c-1.2,0.5-0.8-0.5-0.8-0.5l1.3-3.5c-1.7-1.8-2.4-4.4-1.7-7c1.1-3.9,5.2-6.2,9.1-5.1
		C40.1,32.1,42.4,36.1,41.3,40z"/>
</g>
</svg>
