<svg xmlns="http://www.w3.org/2000/svg" xmlns:xlink="http://www.w3.org/1999/xlink" width="120" zoomAndPan="magnify" viewBox="0 0 90 30.000001" height="40" preserveAspectRatio="xMidYMid meet" version="1.0"><defs><g/><clipPath id="4821fcb0c5"><path d="M 5.804688 10.074219 L 14.515625 10.074219 L 14.515625 18.785156 L 5.804688 18.785156 Z M 5.804688 10.074219 " clip-rule="nonzero"/></clipPath></defs><g clip-path="url(#4821fcb0c5)"><path fill="#ffffff" d="M 7.546875 17.21875 L 7.652344 17.324219 C 7.960938 17.640625 7.957031 18.152344 7.644531 18.46875 C 7.332031 18.78125 6.820312 18.785156 6.503906 18.476562 L 6.492188 18.46875 L 6.125 18.101562 C 5.808594 17.785156 5.808594 17.265625 6.125 16.949219 C 6.441406 16.628906 6.960938 16.628906 7.277344 16.949219 Z M 12.976562 12.753906 L 13.074219 12.660156 L 14.1875 11.546875 C 14.503906 11.226562 14.503906 10.710938 14.1875 10.390625 C 13.867188 10.074219 13.351562 10.074219 13.035156 10.390625 L 12.03125 11.398438 L 11.921875 11.507812 L 11.824219 11.601562 L 11.25 12.179688 C 10.933594 12.496094 10.933594 13.015625 11.25 13.332031 L 11.824219 13.910156 L 11.929688 14.011719 L 13.042969 15.125 C 13.359375 15.441406 13.875 15.441406 14.195312 15.125 C 14.511719 14.808594 14.511719 14.289062 14.195312 13.972656 L 13.082031 12.855469 Z M 6.171875 10.398438 C 6.488281 10.082031 7.007812 10.082031 7.324219 10.398438 L 14.179688 17.265625 C 14.496094 17.582031 14.496094 18.101562 14.179688 18.417969 C 13.863281 18.734375 13.34375 18.734375 13.027344 18.417969 L 6.171875 11.550781 C 5.855469 11.234375 5.855469 10.714844 6.171875 10.398438 Z M 6.160156 13.6875 C 6.476562 13.367188 6.996094 13.367188 7.3125 13.6875 L 8.09375 14.46875 L 9.78125 16.160156 L 10.898438 17.273438 C 11.214844 17.589844 11.214844 18.109375 10.898438 18.425781 C 10.578125 18.742188 10.0625 18.742188 9.746094 18.425781 L 6.160156 14.839844 C 5.84375 14.523438 5.84375 14.003906 6.160156 13.6875 Z M 6.160156 13.6875 " fill-opacity="1" fill-rule="evenodd"/></g><g fill="#ffffff" fill-opacity="1"><g transform="translate(17.938134, 17.754814)"><g><path d="M 3.765625 0.109375 C 3.097656 0.109375 2.515625 -0.0351562 2.015625 -0.328125 C 1.515625 -0.617188 1.125 -1.019531 0.84375 -1.53125 C 0.5625 -2.050781 0.421875 -2.648438 0.421875 -3.328125 C 0.421875 -4.003906 0.5625 -4.597656 0.84375 -5.109375 C 1.125 -5.628906 1.515625 -6.035156 2.015625 -6.328125 C 2.515625 -6.617188 3.097656 -6.765625 3.765625 -6.765625 C 4.421875 -6.765625 5 -6.617188 5.5 -6.328125 C 6 -6.035156 6.390625 -5.628906 6.671875 -5.109375 C 6.953125 -4.597656 7.09375 -4.003906 7.09375 -3.328125 C 7.09375 -2.648438 6.953125 -2.050781 6.671875 -1.53125 C 6.390625 -1.019531 6 -0.617188 5.5 -0.328125 C 5 -0.0351562 4.421875 0.109375 3.765625 0.109375 Z M 3.765625 -0.984375 C 4.398438 -0.984375 4.90625 -1.191406 5.28125 -1.609375 C 5.65625 -2.023438 5.84375 -2.597656 5.84375 -3.328125 C 5.84375 -4.054688 5.65625 -4.628906 5.28125 -5.046875 C 4.90625 -5.460938 4.398438 -5.671875 3.765625 -5.671875 C 3.128906 -5.671875 2.617188 -5.460938 2.234375 -5.046875 C 1.859375 -4.628906 1.671875 -4.054688 1.671875 -3.328125 C 1.671875 -2.597656 1.859375 -2.023438 2.234375 -1.609375 C 2.617188 -1.191406 3.128906 -0.984375 3.765625 -0.984375 Z M 3.765625 -0.984375 "/></g></g></g><g fill="#ffffff" fill-opacity="1"><g transform="translate(26.92714, 17.754814)"><g><path d="M 2 0 L 0.234375 -6.65625 L 1.53125 -6.65625 L 2.734375 -1.359375 L 4.140625 -6.65625 L 5.484375 -6.65625 L 6.84375 -1.359375 L 8.046875 -6.65625 L 9.359375 -6.65625 L 7.546875 0 L 6.109375 0 L 4.78125 -4.9375 L 3.421875 0 Z M 2 0 "/></g></g></g><g fill="#ffffff" fill-opacity="1"><g transform="translate(37.996969, 17.754814)"><g><path d="M 0.640625 0 L 0.640625 -6.65625 L 4.984375 -6.65625 L 4.984375 -5.671875 L 1.859375 -5.671875 L 1.859375 -3.84375 L 4.703125 -3.84375 L 4.703125 -2.890625 L 1.859375 -2.890625 L 1.859375 -0.984375 L 4.984375 -0.984375 L 4.984375 0 Z M 0.640625 0 "/></g></g></g><g fill="#ffffff" fill-opacity="1"><g transform="translate(44.962153, 17.754814)"><g><path d="M 0.640625 0 L 0.640625 -6.65625 L 1.859375 -6.65625 L 4.984375 -1.96875 L 4.984375 -6.65625 L 6.203125 -6.65625 L 6.203125 0 L 4.984375 0 L 1.859375 -4.671875 L 1.859375 0 Z M 0.640625 0 "/></g></g></g><g fill="#ffffff" fill-opacity="1"><g transform="translate(53.286051, 17.754814)"><g><path d="M 2.1875 0 L 2.1875 -5.671875 L 0.25 -5.671875 L 0.25 -6.65625 L 5.359375 -6.65625 L 5.359375 -5.671875 L 3.40625 -5.671875 L 3.40625 0 Z M 2.1875 0 "/></g></g></g><g fill="#ffffff" fill-opacity="1"><g transform="translate(60.374753, 17.754814)"><g><path d="M 0.640625 0 L 0.640625 -6.65625 L 4.984375 -6.65625 L 4.984375 -5.671875 L 1.859375 -5.671875 L 1.859375 -3.84375 L 4.703125 -3.84375 L 4.703125 -2.890625 L 1.859375 -2.890625 L 1.859375 -0.984375 L 4.984375 -0.984375 L 4.984375 0 Z M 0.640625 0 "/></g></g></g><g fill="#ffffff" fill-opacity="1"><g transform="translate(67.339936, 17.754814)"><g><path d="M 3.65625 0.109375 C 2.988281 0.109375 2.410156 -0.03125 1.921875 -0.3125 C 1.441406 -0.601562 1.070312 -1.003906 0.8125 -1.515625 C 0.550781 -2.035156 0.421875 -2.632812 0.421875 -3.3125 C 0.421875 -3.988281 0.550781 -4.585938 0.8125 -5.109375 C 1.070312 -5.628906 1.441406 -6.035156 1.921875 -6.328125 C 2.410156 -6.617188 2.988281 -6.765625 3.65625 -6.765625 C 4.457031 -6.765625 5.113281 -6.566406 5.625 -6.171875 C 6.132812 -5.773438 6.453125 -5.21875 6.578125 -4.5 L 5.234375 -4.5 C 5.148438 -4.863281 4.972656 -5.144531 4.703125 -5.34375 C 4.429688 -5.550781 4.078125 -5.65625 3.640625 -5.65625 C 3.023438 -5.65625 2.539062 -5.445312 2.1875 -5.03125 C 1.84375 -4.613281 1.671875 -4.039062 1.671875 -3.3125 C 1.671875 -2.582031 1.84375 -2.007812 2.1875 -1.59375 C 2.539062 -1.1875 3.023438 -0.984375 3.640625 -0.984375 C 4.078125 -0.984375 4.429688 -1.078125 4.703125 -1.265625 C 4.972656 -1.460938 5.148438 -1.734375 5.234375 -2.078125 L 6.578125 -2.078125 C 6.453125 -1.390625 6.132812 -0.851562 5.625 -0.46875 C 5.113281 -0.0820312 4.457031 0.109375 3.65625 0.109375 Z M 3.65625 0.109375 "/></g></g></g><g fill="#ffffff" fill-opacity="1"><g transform="translate(75.815851, 17.754814)"><g><path d="M 0.640625 0 L 0.640625 -6.65625 L 1.859375 -6.65625 L 1.859375 -3.890625 L 4.84375 -3.890625 L 4.84375 -6.65625 L 6.0625 -6.65625 L 6.0625 0 L 4.84375 0 L 4.84375 -2.890625 L 1.859375 -2.890625 L 1.859375 0 Z M 0.640625 0 "/></g></g></g></svg>